<?xml version="1.0" encoding="UTF-8"?>

<svg xmlns="http://www.w3.org/2000/svg" viewBox="0 0 237.86 45.57">
    <defs>
        <style>
            .cls-1 {
                fill: #004e81;
            }

            .cls-2 {
                fill: none;
                stroke: #004e81;
                stroke-miterlimit: 10;
                stroke-width: .25px;
            }

            .cls-3 {
                fill: #ecc21a;
            }
        </style>
    </defs>

    <g>
        <g>
            <g>
                <path class="cls-1" d="m20,28.69h-11.78v16.62H0V0h20c5.09,0,8.83,1.22,11.22,3.65,2.39,2.43,3.58,5.17,3.58,10.26,0,10.53-4.93,14.78-14.8,14.78Z"/>
                <g>
                <path class="cls-1" d="m13.81,45.57h-4.49v-15.83h4.49v15.83Zm-3.98-.51h3.47v-14.81h-3.47v14.81Z"/>
                <path class="cls-1" d="m24.31,45.57h-3.94l-1.63-5.47v5.47h-3.84v-15.83h3.77l1.79,5.54v-5.54h3.84v15.83Zm-3.56-.51h3.05v-14.81h-2.82v8.26l-2.67-8.26h-2.89v14.81h2.82v-8.46l2.52,8.46Z"/>
                <path class="cls-1" d="m32.82,45.57h-7.42v-15.83h7.15v3.58h-2.66v2.4h2.49v3.42h-2.49v2.86h2.92v3.58Zm-6.91-.51h6.4v-2.56h-2.92v-3.88h2.49v-2.41h-2.49v-3.42h2.66v-2.56h-6.13v14.81Z"/>
                </g>
                <path class="cls-3" d="m13.9,6.97v15.09h-3.92V6.97h3.92Z"/>
                <path class="cls-3" d="m23.38,6.97v3.02h-2.33v12.07h-3.92v-12.07h-2.32v-3.02h8.57Z"/>
            </g>
            <g>
                <path class="cls-1" d="m38.03,38.53h11.27v-6.79h5.22v6.79h11.27v4.27h-27.76v-4.27Zm16.99-24.15v4.38c0,1.68-.22,3.26-.67,4.73l11.37,6.65-2.56,3.85-10.94-6.37c-2.42,3.1-6.38,5.34-11.9,6.72l-1.96-4.03c3.99-.86,6.89-2.25,8.7-4.15,1.81-1.9,2.71-4.38,2.71-7.44v-4.34h5.25Z"/>
                <path class="cls-1" d="m72.94,14.24v23.94h12.04v4.27h-17.26V14.24h5.22Zm20.45,10.26h2.89v4.27h-2.89v14.04h-5.22V13.54h5.22v10.96Z"/>
                <path class="cls-1" d="m96.55,33.53h27.76v4.27h-11.27v6.09h-5.22v-6.09h-11.27v-4.27Zm1.63-19.15h24.5v15.75h-24.5v-15.75Zm5.22,11.48h14.06v-7.21h-14.06v7.21Z"/>
                <path class="cls-1" d="m125.97,14.07h18.12v2.87h-7.55v2.9c0,.75-.09,1.49-.27,2.24l8.18,5.43-1.76,2.42-7.71-5.15c-.84,1.17-1.96,2.16-3.36,2.98s-3.02,1.5-4.85,2.06l-1.46-2.55c1.13-.3,2.17-.67,3.12-1.1s1.78-.94,2.49-1.52c.71-.58,1.26-1.27,1.66-2.07.4-.79.6-1.71.6-2.76v-2.87h-7.22v-2.87Zm13.83,29.96c-1.93,0-3.67-.13-5.24-.38s-2.89-.64-3.97-1.16c-1.09-.51-1.92-1.16-2.51-1.94-.59-.78-.88-1.7-.88-2.75s.29-1.97.88-2.75c.59-.78,1.42-1.42,2.51-1.92,1.09-.5,2.41-.88,3.97-1.14,1.56-.26,3.31-.38,5.24-.38s3.67.13,5.24.38c1.56.26,2.89.64,3.97,1.14,1.09.5,1.92,1.14,2.51,1.92.59.78.88,1.7.88,2.75s-.29,1.97-.88,2.75c-.59.78-1.42,1.43-2.51,1.94-1.09.51-2.41.9-3.97,1.16s-3.31.38-5.24.38Zm0-2.87c1.42,0,2.7-.07,3.84-.21,1.14-.14,2.12-.35,2.93-.63.81-.28,1.43-.63,1.86-1.05s.65-.91.65-1.47-.22-1.04-.65-1.45-1.05-.75-1.86-1.03c-.81-.28-1.78-.49-2.93-.63s-2.42-.21-3.84-.21-2.7.07-3.84.21-2.12.35-2.93.63c-.81.28-1.43.62-1.86,1.03s-.65.89-.65,1.45.22,1.05.65,1.47,1.05.77,1.86,1.05c.81.28,1.78.49,2.93.63,1.14.14,2.42.21,3.84.21Zm11.94-27.44v17.36h-3.33v-9.21l-5.75,1.4v-2.87l5.75-1.4v-5.29h3.33Z"/>
                <path class="cls-1" d="m154.24,39.76h11.7v-6.12h-10.08V14.42h3.33v6.96h16.86v-6.96h3.33v19.22h-10.11v6.12h11.74v2.87h-26.77v-2.87Zm21.81-15.5h-16.86v6.51h16.86v-6.51Z"/>
                <path class="cls-1" d="m196.53,42.28v-24.99h-13.27v-2.87h16.59v27.86h-3.33Zm12.07.35h-3.33V13.71h3.33v28.91Z"/>
                <path class="cls-1" d="m211.09,25.83h26.77v2.87h-11.74v2.49h10.11v7.53h-20.18v1.75h20.51v2.87h-23.84v-7.49h20.18v-1.79h-20.18v-2.87h10.07v-2.49h-11.7v-2.87Zm15.56-12.46v.59c0,1.1-.22,2.14-.67,3.12l10.54,3.74-1.36,2.73-11.14-3.96c-2.15,1.84-5.7,3.15-10.64,3.92l-1.26-2.73c2.02-.3,3.74-.68,5.17-1.12,1.43-.44,2.59-.96,3.47-1.54.89-.58,1.54-1.23,1.95-1.92.41-.7.62-1.46.62-2.28v-.56h3.33Z"/>
            </g>
            <g>
                <path class="cls-1" d="m48.73,6.39c-.38.37-.97.56-1.76.56h-1.3v2.82h-.88V3.02h2.18c.76,0,1.34.18,1.74.55s.6.84.6,1.42-.19,1.03-.58,1.4Zm-.67-.49c.23-.21.35-.52.35-.91,0-.83-.48-1.25-1.43-1.25h-1.3v2.48h1.3c.49,0,.85-.11,1.08-.32Z"/>
                <path class="cls-1" d="m49.85,3.42c-.12-.12-.17-.26-.17-.43s.06-.31.17-.43.26-.17.43-.17.3.06.41.17c.11.12.17.26.17.43s-.06.31-.17.43c-.11.12-.25.17-.41.17s-.31-.06-.43-.17Zm.85,1.04v5.31h-.88v-5.31h.88Z"/>
                <path class="cls-1" d="m55.78,4.95c.4.39.6.95.6,1.69v3.13h-.87v-3c0-.53-.13-.93-.4-1.22-.26-.28-.63-.42-1.08-.42s-.83.15-1.11.44c-.27.29-.41.71-.41,1.27v2.94h-.88v-5.31h.88v.76c.17-.27.41-.48.71-.63.3-.15.63-.22.99-.22.65,0,1.17.2,1.57.59Z"/>
                <path class="cls-1" d="m62.05,7.44h-4.24c.03.52.21.93.54,1.23.33.29.72.44,1.19.44.38,0,.7-.09.95-.27.25-.18.43-.42.54-.71h.95c-.14.51-.43.93-.85,1.25-.43.32-.96.48-1.59.48-.5,0-.95-.11-1.35-.34-.4-.23-.71-.55-.94-.96-.23-.42-.34-.9-.34-1.45s.11-1.03.33-1.44c.22-.41.53-.73.93-.95.4-.22.85-.33,1.37-.33s.95.11,1.34.33c.39.22.69.52.9.91.21.38.31.82.31,1.3,0,.17,0,.35-.03.53Zm-1.1-1.58c-.15-.24-.35-.43-.61-.55-.25-.13-.54-.19-.85-.19-.45,0-.83.14-1.14.43s-.49.68-.54,1.18h3.35c0-.34-.08-.62-.22-.87Z"/>
                <path class="cls-1" d="m65.55,3.02v6.75h-.88V3.02h.88Z"/>
                <path class="cls-1" d="m70.63,4.95c.4.39.6.95.6,1.69v3.13h-.87v-3c0-.53-.13-.93-.4-1.22-.26-.28-.63-.42-1.08-.42s-.83.15-1.11.44c-.27.29-.41.71-.41,1.27v2.94h-.88v-5.31h.88v.76c.17-.27.41-.48.71-.63.3-.15.63-.22.99-.22.65,0,1.17.2,1.57.59Z"/>
                <path class="cls-1" d="m74.25,5.19h-1.11v4.58h-.88v-4.58h-.69v-.73h.69v-.38c0-.59.15-1.03.46-1.3.31-.27.8-.41,1.48-.41v.74c-.39,0-.66.08-.82.23s-.24.4-.24.75v.38h1.11v.73Z"/>
                <path class="cls-1" d="m75.66,9.52c-.4-.23-.72-.55-.95-.96-.23-.42-.34-.9-.34-1.45s.12-1.02.35-1.44c.24-.42.56-.74.96-.96.41-.22.86-.33,1.37-.33s.96.11,1.37.33c.41.22.73.54.96.95.24.41.35.89.35,1.44s-.12,1.03-.36,1.45-.57.74-.98.96c-.41.23-.87.34-1.38.34s-.95-.11-1.35-.34Zm2.24-.66c.28-.15.5-.37.67-.67.17-.3.26-.66.26-1.08s-.08-.79-.25-1.08-.39-.52-.66-.66c-.27-.15-.56-.22-.88-.22s-.62.07-.89.22c-.27.15-.48.37-.64.66-.16.3-.24.66-.24,1.08s.08.8.24,1.09c.16.3.37.52.63.66.26.15.56.22.87.22s.61-.07.89-.22Z"/>
                <path class="cls-1" d="m81.86,4.62c.29-.17.64-.25,1.05-.25v.91h-.23c-.99,0-1.48.54-1.48,1.61v2.89h-.88v-5.31h.88v.86c.16-.3.38-.54.66-.71Z"/>
                <path class="cls-1" d="m90.83,4.62c.32.17.58.43.77.77.19.34.28.76.28,1.25v3.13h-.87v-3c0-.53-.13-.93-.39-1.22-.26-.28-.62-.42-1.06-.42s-.82.15-1.09.44c-.27.29-.41.72-.41,1.27v2.93h-.87v-3c0-.53-.13-.93-.39-1.22-.26-.28-.62-.42-1.06-.42s-.82.15-1.09.44c-.27.29-.41.72-.41,1.27v2.93h-.88v-5.31h.88v.77c.17-.28.41-.49.7-.64s.62-.22.97-.22c.45,0,.84.1,1.18.3.34.2.6.49.76.88.15-.37.39-.67.74-.87.34-.21.72-.31,1.14-.31s.78.09,1.1.26Z"/>
                <path class="cls-1" d="m92.74,5.67c.22-.41.52-.73.91-.95.38-.23.81-.34,1.28-.34s.87.1,1.21.3c.34.2.6.45.77.76v-.97h.89v5.31h-.89v-.99c-.17.31-.43.57-.78.77-.35.2-.75.31-1.21.31s-.9-.12-1.28-.35c-.38-.23-.68-.56-.9-.98s-.33-.9-.33-1.43.11-1.02.33-1.43Zm3.92.39c-.16-.3-.38-.52-.65-.68-.28-.16-.58-.24-.91-.24s-.63.08-.9.23c-.27.15-.49.38-.65.68-.16.3-.24.65-.24,1.05s.08.76.24,1.06.38.53.65.69c.27.16.57.24.9.24s.63-.08.91-.24c.27-.16.49-.39.65-.69s.24-.65.24-1.05-.08-.75-.24-1.05Z"/>
                <path class="cls-1" d="m99.78,5.19v3.13c0,.26.05.44.17.55.11.11.3.16.57.16h.65v.75h-.79c-.49,0-.86-.11-1.1-.34-.25-.23-.37-.6-.37-1.11v-3.13h-.69v-.73h.69v-1.34h.88v1.34h1.38v.73h-1.38Z"/>
                <path class="cls-1" d="m101.68,3.42c-.12-.12-.17-.26-.17-.43s.06-.31.17-.43.26-.17.43-.17.3.06.41.17.17.26.17.43-.06.31-.17.43-.25.17-.41.17-.31-.06-.43-.17Zm.85,1.04v5.31h-.88v-5.31h.88Z"/>
                <path class="cls-1" d="m104.42,9.52c-.4-.23-.72-.55-.95-.96s-.34-.9-.34-1.45.12-1.02.35-1.44c.24-.42.56-.74.96-.96.41-.22.86-.33,1.37-.33s.96.11,1.37.33c.41.22.73.54.96.95.24.41.35.89.35,1.44s-.12,1.03-.36,1.45-.57.74-.98.96-.87.34-1.38.34-.95-.11-1.35-.34Zm2.24-.66c.28-.15.5-.37.67-.67.17-.3.26-.66.26-1.08s-.08-.79-.25-1.08-.39-.52-.66-.66-.57-.22-.88-.22-.62.07-.89.22c-.27.15-.48.37-.64.66s-.24.66-.24,1.08.08.8.24,1.09c.16.3.37.52.63.66.26.15.56.22.87.22s.61-.07.89-.22Z"/>
                <path class="cls-1" d="m113.23,4.95c.4.39.6.95.6,1.69v3.13h-.87v-3c0-.53-.13-.93-.4-1.22-.26-.28-.63-.42-1.08-.42s-.83.15-1.11.44c-.27.29-.41.71-.41,1.27v2.94h-.88v-5.31h.88v.76c.17-.27.41-.48.71-.63.3-.15.63-.22.99-.22.65,0,1.17.2,1.57.59Z"/>
                <path class="cls-1" d="m120.85,3.02v.72h-1.84v6.03h-.88V3.73h-1.85v-.72h4.57Z"/>
                <path class="cls-1" d="m126.17,7.44h-4.24c.03.52.21.93.54,1.23.33.29.72.44,1.19.44.38,0,.7-.09.95-.27.25-.18.43-.42.54-.71h.95c-.14.51-.43.93-.85,1.25-.43.32-.96.48-1.59.48-.5,0-.95-.11-1.35-.34-.4-.23-.71-.55-.94-.96-.23-.42-.34-.9-.34-1.45s.11-1.03.33-1.44c.22-.41.53-.73.93-.95.4-.22.85-.33,1.37-.33s.95.11,1.34.33c.39.22.69.52.9.91.21.38.31.82.31,1.3,0,.17,0,.35-.03.53Zm-1.1-1.58c-.15-.24-.35-.43-.61-.55-.25-.13-.54-.19-.85-.19-.45,0-.83.14-1.14.43-.31.28-.49.68-.54,1.18h3.35c0-.34-.08-.62-.22-.87Z"/>
                <path class="cls-1" d="m126.78,5.67c.22-.41.52-.73.92-.95s.84-.34,1.34-.34c.65,0,1.19.16,1.61.47.42.32.7.76.84,1.32h-.95c-.09-.32-.27-.58-.53-.77-.26-.19-.59-.28-.97-.28-.5,0-.91.17-1.22.52-.31.35-.46.83-.46,1.47s.16,1.13.46,1.48c.31.35.72.52,1.22.52.39,0,.71-.09.97-.27.26-.18.44-.44.53-.77h.95c-.14.54-.43.98-.85,1.3-.43.33-.96.49-1.6.49-.5,0-.95-.11-1.34-.34s-.7-.55-.92-.96c-.22-.41-.33-.9-.33-1.45s.11-1.03.33-1.44Z"/>
                <path class="cls-1" d="m135.8,4.62c.32.17.58.43.76.77.18.34.28.76.28,1.25v3.13h-.87v-3c0-.53-.13-.93-.4-1.22-.26-.28-.63-.42-1.08-.42s-.83.15-1.11.44c-.27.29-.41.71-.41,1.27v2.94h-.88V2.6h.88v2.62c.17-.27.42-.48.72-.63s.65-.22,1.03-.22c.4,0,.76.09,1.08.26Z"/>
                <path class="cls-1" d="m141.85,4.95c.4.39.6.95.6,1.69v3.13h-.87v-3c0-.53-.13-.93-.4-1.22-.26-.28-.63-.42-1.08-.42s-.83.15-1.11.44c-.27.29-.41.71-.41,1.27v2.94h-.88v-5.31h.88v.76c.17-.27.41-.48.71-.63.3-.15.63-.22.99-.22.65,0,1.17.2,1.57.59Z"/>
                <path class="cls-1" d="m144.28,9.52c-.4-.23-.72-.55-.95-.96-.23-.42-.34-.9-.34-1.45s.12-1.02.35-1.44c.24-.42.56-.74.96-.96.41-.22.86-.33,1.37-.33s.96.11,1.37.33c.41.22.73.54.96.95.24.41.35.89.35,1.44s-.12,1.03-.36,1.45-.57.74-.98.96c-.41.23-.87.34-1.38.34s-.95-.11-1.35-.34Zm2.24-.66c.28-.15.5-.37.67-.67.17-.3.26-.66.26-1.08s-.08-.79-.25-1.08-.39-.52-.66-.66c-.27-.15-.56-.22-.88-.22s-.62.07-.89.22c-.27.15-.48.37-.64.66-.16.3-.24.66-.24,1.08s.08.8.24,1.09c.16.3.37.52.63.66.26.15.56.22.87.22s.61-.07.89-.22Z"/>
                <path class="cls-1" d="m149.81,2.6v7.17h-.88V2.6h.88Z"/>
                <path class="cls-1" d="m151.7,9.52c-.4-.23-.72-.55-.95-.96s-.34-.9-.34-1.45.12-1.02.35-1.44c.24-.42.56-.74.96-.96.41-.22.86-.33,1.37-.33s.96.11,1.37.33c.41.22.73.54.96.95.24.41.35.89.35,1.44s-.12,1.03-.36,1.45-.57.74-.98.96-.87.34-1.38.34-.95-.11-1.35-.34Zm2.24-.66c.28-.15.5-.37.67-.67.17-.3.26-.66.26-1.08s-.08-.79-.25-1.08c-.17-.3-.39-.52-.66-.66s-.57-.22-.88-.22-.62.07-.89.22c-.27.15-.48.37-.64.66s-.24.66-.24,1.08.08.8.24,1.09c.16.3.37.52.63.66.26.15.56.22.87.22s.61-.07.89-.22Z"/>
                <path class="cls-1" d="m159.75,4.67c.34.2.6.45.77.76v-.97h.89v5.42c0,.48-.1.92-.31,1.29-.21.38-.5.67-.89.89-.38.21-.83.32-1.34.32-.7,0-1.28-.16-1.74-.49-.46-.33-.74-.78-.82-1.35h.87c.1.32.3.58.6.78.3.2.67.3,1.09.3.48,0,.88-.15,1.19-.46.31-.3.46-.73.46-1.28v-1.11c-.17.31-.43.57-.77.77-.34.21-.74.31-1.2.31s-.9-.12-1.28-.35c-.38-.23-.69-.56-.91-.98s-.33-.9-.33-1.43.11-1.02.33-1.43.52-.73.91-.95c.38-.23.81-.34,1.28-.34s.86.1,1.21.3Zm.53,1.39c-.16-.3-.38-.52-.65-.68-.28-.16-.58-.24-.91-.24s-.63.08-.9.23c-.27.15-.49.38-.65.68-.16.3-.24.65-.24,1.05s.08.76.24,1.06.38.53.65.69c.27.16.57.24.9.24s.63-.08.91-.24c.27-.16.49-.39.65-.69s.24-.65.24-1.05-.08-.75-.24-1.05Z"/>
                <path class="cls-1" d="m166.89,4.46l-3.2,7.81h-.91l1.05-2.56-2.14-5.25h.98l1.67,4.3,1.65-4.3h.91Z"/>
                <path class="cls-1" d="m169.31,4.61c.3-.53.7-.94,1.22-1.24.51-.3,1.08-.45,1.71-.45.74,0,1.38.18,1.93.53s.95.86,1.2,1.51h-1.06c-.19-.41-.46-.72-.81-.94-.35-.22-.77-.33-1.26-.33s-.89.11-1.27.33c-.37.22-.67.53-.88.94-.21.4-.32.88-.32,1.42s.11,1.01.32,1.41c.21.4.51.72.88.93.38.22.8.33,1.27.33s.91-.11,1.26-.32c.35-.22.62-.53.81-.93h1.06c-.25.65-.65,1.14-1.2,1.5s-1.19.53-1.93.53c-.63,0-1.2-.15-1.71-.44-.51-.29-.92-.7-1.22-1.23s-.45-1.11-.45-1.77.15-1.25.45-1.78Z"/>
                <path class="cls-1" d="m177.05,9.52c-.4-.23-.72-.55-.95-.96s-.34-.9-.34-1.45.12-1.02.35-1.44c.24-.42.56-.74.96-.96.41-.22.86-.33,1.37-.33s.96.11,1.37.33c.41.22.73.54.96.95.24.41.35.89.35,1.44s-.12,1.03-.36,1.45-.57.74-.98.96-.87.34-1.38.34-.95-.11-1.35-.34Zm2.24-.66c.28-.15.5-.37.67-.67.17-.3.26-.66.26-1.08s-.08-.79-.25-1.08-.39-.52-.66-.66-.57-.22-.88-.22-.62.07-.89.22c-.27.15-.48.37-.64.66s-.24.66-.24,1.08.08.8.24,1.09c.16.3.37.52.63.66.26.15.56.22.87.22s.61-.07.89-.22Z"/>
                <path class="cls-1" d="m181.56,9.65c-.12-.12-.17-.26-.17-.43s.06-.31.17-.43.26-.17.43-.17.3.06.41.17c.11.12.17.26.17.43s-.06.31-.17.43c-.11.12-.25.17-.41.17s-.31-.06-.43-.17Z"/>
                <path class="cls-1" d="m184.07,8.55l-1.08,2.61h-.59l.71-2.61h.97Z"/>
                <path class="cls-1" d="m187.38,9.05h2.36v.72h-3.25V3.02h.88v6.03Z"/>
                <path class="cls-1" d="m191.18,5.19v3.13c0,.26.05.44.17.55.11.11.3.16.57.16h.65v.75h-.79c-.49,0-.86-.11-1.1-.34-.25-.23-.37-.6-.37-1.11v-3.13h-.69v-.73h.69v-1.34h.88v1.34h1.38v.73h-1.38Z"/>
                <path class="cls-1" d="m193.05,5.67c.22-.41.52-.73.91-.95.38-.23.82-.34,1.29-.34.41,0,.8.1,1.15.29.36.19.63.44.81.75v-2.81h.89v7.17h-.89v-1c-.17.32-.43.58-.78.78-.34.2-.74.31-1.2.31s-.9-.12-1.28-.35c-.38-.23-.69-.56-.91-.98-.22-.42-.33-.9-.33-1.43s.11-1.02.33-1.43Zm3.92.39c-.16-.3-.38-.52-.65-.68s-.58-.24-.91-.24-.63.08-.9.23c-.27.15-.49.38-.65.68-.16.3-.24.65-.24,1.05s.08.76.24,1.06c.16.3.38.53.65.69.27.16.57.24.9.24s.63-.08.91-.24.49-.39.65-.69c.16-.3.24-.65.24-1.05s-.08-.75-.24-1.05Z"/>
            </g>
            <line class="cls-2" x1="203.93" y1="6.65" x2="235.94" y2="6.65"/>
        </g>
    </g>
</svg>