<?xml version="1.0" encoding="UTF-8"?>
<svg xmlns="http://www.w3.org/2000/svg" viewBox="0 0 64 64">
    <defs>
        <style>
        .cls-1 {
            fill: #004e81;
        }

        .cls-2 {
            fill: #ecc21a;
        }
        </style>
    </defs>
    <path class="cls-1" d="m34.51,37.99h-11.78v16.62h-8.22V9.3h20c5.09,0,8.83,1.22,11.22,3.65,2.39,2.43,3.58,5.17,3.58,10.26,0,10.53-4.93,14.78-14.8,14.78Z"/>
    <g>
        <path class="cls-1" d="m28.32,54.87h-4.49v-15.83h4.49v15.83Zm-3.98-.51h3.47v-14.81h-3.47v14.81Z"/>
        <path class="cls-1" d="m38.82,54.87h-3.94l-1.63-5.47v5.47h-3.84v-15.83h3.77l1.79,5.54v-5.54h3.84v15.83h.01Zm-3.56-.51h3.05v-14.81h-2.82v8.26l-2.67-8.26h-2.89v14.81h2.82v-8.46l2.52,8.46h-.01Z"/>
        <path class="cls-1" d="m47.33,54.87h-7.42v-15.83h7.15v3.58h-2.66v2.4h2.49v3.42h-2.49v2.86h2.92v3.58h0Zm-6.91-.52h6.4v-2.56h-2.92v-3.88h2.49v-2.41h-2.49v-3.42h2.66v-2.56h-6.13v14.83Z"/>
    </g>
    <path class="cls-2" d="m28.41,16.27v15.09h-3.92v-15.09h3.92Z"/>
    <path class="cls-2" d="m37.89,16.27v3.02h-2.33v12.07h-3.92v-12.07h-2.32v-3.02h8.57Z"/>
</svg>